<svg xmlns="http://www.w3.org/2000/svg" viewBox="176 50 2050 736" width="2050" height="736" role="img" aria-label="wordmark"><g transform="translate(0.000000,1600.000000) scale(0.100000,-0.100000)" fill="#F1E9DA"><path d="M3083 15168 c-39 -41 -101 -183 -139 -318 -35 -124 -30 -122 -208
-118 -150 3 -145 -6 -106 208 41 225 38 246 -41 244 -76 -2 -103 -57 -155
-325 -32 -163 -11 -149 -221 -149 -153 0 -153 0 -153 -28 0 -55 21 -62 178
-62 83 0 143 -4 147 -10 3 -6 -1 -58 -9 -118 -46 -331 -46 -496 0 -695 58
-251 146 -359 287 -348 24 1 22 21 -3 21 -28 0 -98 66 -116 109 -8 20 -26 47
-39 61 -34 37 -51 103 -23 94 19 -6 20 -3 15 32 -4 22 -9 138 -13 259 -7 220
-7 220 18 270 24 47 41 110 69 250 16 81 19 82 107 90 42 4 106 11 141 16 35
5 65 8 68 6 2 -2 -5 -56 -16 -118 -11 -63 -25 -154 -32 -204 -11 -93 -27 -129
-82 -192 -31 -35 -29 -53 6 -53 47 0 50 -10 45 -137 -6 -141 -7 -138 44 -164
45 -23 88 -15 88 17 0 19 100 172 130 199 20 18 20 17 20 -39 0 -74 49 -132
133 -159 95 -30 137 -14 248 98 84 85 89 87 89 43 1 -48 43 -113 90 -138 100
-53 366 72 485 227 51 67 35 65 -40 -6 -71 -66 -127 -105 -184 -128 -40 -15
-43 -18 47 50 59 44 68 52 142 141 36 43 75 90 88 104 50 56 7 30 -56 -34
-177 -180 -343 -293 -433 -294 -44 0 -65 53 -53 131 7 39 7 39 69 39 62 0 62
0 113 54 76 80 109 153 94 205 -23 75 -123 106 -192 59 -43 -30 -60 -56 -42
-67 10 -6 6 -20 -19 -59 -26 -43 -35 -50 -46 -40 -15 12 -33 -3 -33 -28 0 -15
-184 -192 -252 -242 -129 -96 -159 -58 -124 158 16 94 14 100 -39 119 -43 15
-75 -4 -147 -91 -115 -137 -107 -137 -104 -11 4 111 4 111 68 255 69 152 110
256 128 326 10 39 13 42 45 42 26 0 33 -3 29 -15 -8 -20 7 -19 45 3 43 24 35
34 -31 35 -31 1 -58 4 -61 7 -3 3 8 64 24 135 35 160 46 264 30 293 -19 36
-79 30 -118 -10z m1 -280 c-27 -117 -39 -148 -55 -148 -14 0 -9 21 32 153 41
127 53 124 23 -5z m-64 -220 c0 -7 -12 -35 -25 -63 -14 -27 -23 -42 -21 -33 3
9 8 34 12 55 4 21 9 41 11 46 7 12 23 8 23 -5z m-534 -95 c-4 -21 -15 -98 -26
-172 -10 -73 -21 -136 -24 -139 -8 -7 -7 11 4 93 6 39 14 107 19 152 6 46 13
87 16 93 13 21 17 9 11 -27z m1334 -286 c0 -47 -107 -174 -128 -153 -15 16 94
176 120 176 4 0 8 -10 8 -23z M5860 14614 c-19 -9 -55 -18 -80 -20 -111 -11 -330 -74 -330 -96 0
-11 86 1 160 23 36 11 92 24 124 29 32 5 64 14 72 21 8 6 26 8 45 4 36 -8 148
2 169 15 54 33 -90 55 -160 24z M6102 14618 c7 -19 38 -22 38 -4 0 10 -9 16 -21 16 -12 0 -19 -5 -17
-12z M6425 14588 c-10 -6 -53 -12 -95 -13 -320 -8 -711 -77 -969 -171 -53
-20 -146 -53 -206 -74 -198 -69 -450 -194 -622 -306 -130 -86 -135 -88 -93
-34 30 38 39 70 10 35 -7 -8 -21 -15 -32 -15 -42 0 -88 -74 -50 -82 25 -5 -29
-58 -59 -58 -22 0 -22 1 6 30 37 39 20 38 -25 -1 -27 -23 -32 -32 -21 -38 18
-12 -24 -41 -59 -41 -44 0 -206 -182 -266 -298 -54 -107 -80 -327 -50 -438 49
-183 227 -372 486 -514 52 -29 129 -73 169 -98 41 -24 149 -80 240 -124 520
-248 625 -337 626 -528 0 -185 -230 -435 -530 -576 -104 -49 -561 -184 -624
-184 -60 0 -92 -22 -52 -35 26 -8 244 22 287 40 20 8 59 15 86 15 89 0 489
150 533 200 24 26 106 70 133 70 11 0 43 27 76 64 31 35 69 69 86 74 28 10 42
1 20 -13 -5 -3 -35 -39 -66 -80 -31 -41 -59 -75 -62 -75 -4 0 -36 -25 -72 -56
-36 -30 -76 -57 -90 -60 -14 -3 -65 -25 -115 -49 -202 -97 -233 -110 -315
-132 -90 -24 -189 -30 -220 -13 -21 11 -65 3 -179 -33 -96 -30 -341 -13 -341
23 0 5 10 16 21 24 21 14 20 15 -30 40 -59 30 -76 54 -85 116 -9 65 4 98 74
187 78 97 105 151 96 187 -8 32 -16 30 -112 -15 -184 -87 -249 -226 -191 -411
50 -159 120 -235 268 -289 266 -97 750 -9 1092 199 34 21 94 55 134 76 39 21
98 61 130 90 32 28 77 67 101 85 24 18 51 48 60 66 9 18 30 49 46 69 131 165
64 468 -154 687 -144 145 -231 198 -805 495 -470 242 -555 346 -475 578 63
185 265 399 590 626 43 30 92 67 107 81 15 14 80 50 143 81 63 30 194 94 290
141 263 129 590 222 885 252 83 9 178 22 212 29 34 7 73 12 85 10 13 -1 58 -8
100 -14 130 -19 180 -23 249 -21 162 5 341 -97 450 -256 33 -48 35 -53 14 -53
-11 0 -15 -12 -15 -46 0 -59 11 -78 65 -110 58 -33 91 -23 135 44 35 53 34 48
16 98 -7 22 -17 62 -20 89 -11 80 -174 254 -308 329 -164 91 -629 172 -713
124z m-945 -2968 c0 -20 -5 -30 -15 -30 -17 0 -18 4 -9 38 9 32 24 27 24 -8z M5184 14416 c-71 -33 -74 -44 -10 -35 62 8 96 24 96 44 0 21 -27 18
-86 -9z M11442 14270 c-43 -10 -95 -61 -121 -116 -52 -109 -143 -469 -202
-799 -18 -99 -38 -187 -46 -195 -12 -13 -71 -15 -405 -17 -363 -1 -393 -3
-405 -19 -32 -44 -3 -142 51 -175 29 -18 56 -19 367 -19 289 0 338 -2 349 -15
15 -18 13 -33 -25 -305 -15 -102 -30 -232 -35 -290 -14 -178 -31 -314 -42
-334 -6 -11 -6 -21 -1 -25 7 -5 10 -70 5 -107 -1 -5 -27 -32 -58 -58 -55 -48
-55 -48 -79 -26 -19 18 -22 27 -14 41 12 23 -122 -70 -262 -181 -260 -208
-384 -262 -429 -187 -38 62 -49 119 -58 302 -11 219 -23 260 -74 252 -18 -3
-49 -1 -69 5 -79 23 -212 -74 -395 -287 -61 -71 -116 -131 -122 -133 -30 -10
12 199 74 371 8 20 14 64 14 97 0 69 -23 90 -140 130 -105 35 -121 14 -171
-232 -18 -84 -31 -172 -31 -195 1 -24 -5 -87 -13 -140 -15 -102 -20 -238 -9
-291 15 -76 177 -205 231 -185 32 12 97 100 268 358 133 202 225 285 225 203
0 -35 41 -180 62 -222 30 -59 53 -86 106 -122 156 -107 180 -111 343 -60 126
39 172 66 319 190 152 127 243 210 261 241 19 30 19 30 19 -65 1 -162 28 -449
56 -580 14 -69 34 -168 44 -220 37 -192 183 -482 305 -606 87 -88 147 -116
262 -122 66 -3 97 -1 108 8 28 23 17 38 -35 45 -105 14 -231 142 -275 277 -10
29 -28 64 -41 79 -13 14 -24 36 -24 49 0 22 -1 22 -19 6 -17 -16 -19 -14 -49
46 -31 64 -61 182 -50 194 4 3 17 -1 30 -10 58 -41 66 -24 43 104 -8 47 -15
113 -15 148 0 34 -8 106 -17 160 -14 79 -17 161 -16 442 0 378 2 389 59 472
45 66 106 256 134 418 22 126 61 315 72 343 18 47 34 51 294 72 208 17 330 33
353 44 9 5 61 11 116 15 55 4 132 11 170 16 39 5 117 14 175 20 125 12 150 18
150 35 0 30 -118 41 -258 26 -228 -25 -442 -31 -442 -11 0 31 798 59 973 35
56 -8 110 9 105 34 -5 25 -343 31 -648 13 -372 -22 -930 -36 -942 -24 -17 17
13 305 52 497 42 207 70 385 70 447 0 118 -88 171 -228 138z m-92 -989 c-46
-137 -51 -91 -7 62 20 71 22 74 25 40 2 -20 -6 -66 -18 -102z m104 37 c-4 -35
-12 -76 -19 -93 -13 -30 -13 -29 -14 22 -1 46 23 133 36 133 2 0 1 -28 -3 -62z
m479 -188 c20 0 37 -4 37 -10 0 -6 -46 -10 -117 -10 -64 0 -114 2 -112 5 9 8
113 23 134 19 11 -2 37 -4 58 -4z m-655 -260 c2 -30 -8 -109 -22 -179 -14 -69
-28 -155 -31 -191 -11 -109 -47 -274 -61 -283 -19 -11 -18 -31 1 -23 18 7 19
-3 4 -77 -13 -63 -24 -71 -40 -30 -10 27 -4 83 10 83 4 0 8 39 10 86 1 48 11
136 22 196 11 61 24 163 29 227 17 208 70 337 78 191z m-128 -959 c0 -9 -7
-26 -15 -37 -13 -18 -14 -17 -15 17 0 20 3 39 6 42 10 10 24 -2 24 -22z m-10
-456 c0 -44 -15 -63 -29 -37 -20 37 -1 114 20 81 5 -8 9 -27 9 -44z m64 -493
c0 -27 -4 -47 -11 -49 -14 -5 -30 49 -38 132 -6 60 -6 60 21 11 16 -30 27 -67
28 -94z M12968 13143 c-17 -4 -24 -24 -13 -35 7 -7 87 12 100 23 5 6 1 9 -10
9 -11 0 -29 2 -40 4 -11 2 -28 2 -37 -1z M20565 12593 c-100 -22 -205 -112 -230 -197 -32 -106 -8 -285 59
-446 5 -12 -41 -55 -170 -160 -97 -80 -217 -178 -265 -218 -296 -242 -335
-232 -324 88 4 102 7 197 7 212 2 57 -21 88 -64 88 -34 0 -40 4 -50 30 -14 41
-88 74 -88 40 0 -18 -472 -490 -546 -545 -89 -68 -193 -125 -226 -125 -107 0
-92 286 32 604 42 107 42 107 19 133 -50 53 -158 100 -203 89 -40 -10 -153
-268 -172 -393 -8 -54 -43 -96 -148 -182 -107 -88 -115 -93 -128 -88 -8 2 41
59 113 133 114 117 153 173 134 192 -3 3 -49 -38 -103 -90 -218 -215 -444
-385 -592 -447 -173 -71 -283 -93 -236 -45 26 26 105 152 112 179 7 30 -10 33
-38 8 -27 -24 -29 -13 -7 37 19 42 72 207 99 308 14 53 36 52 32 -2 -3 -32 -1
-37 15 -34 23 4 40 146 24 206 -44 160 -265 260 -461 207 -30 -8 -70 -15 -87
-15 -47 0 -160 -112 -212 -208 -34 -63 -418 -424 -589 -553 -230 -174 -524
-292 -618 -248 -60 29 -89 170 -64 317 16 97 23 103 97 84 112 -29 195 -6 298
85 147 129 280 358 272 468 -20 277 -386 350 -558 111 -39 -52 -37 -66 6 -66
22 0 35 -5 35 -13 0 -14 -92 -132 -124 -159 -12 -10 -16 -17 -9 -18 6 0 14 6
16 13 4 9 6 9 6 -1 1 -20 -85 -185 -108 -206 -26 -24 -27 -11 0 55 23 59 22
102 -3 107 -12 2 -22 -12 -36 -50 -14 -38 -31 -61 -60 -83 -159 -119 -223
-167 -290 -219 -324 -248 -396 -225 -414 134 -12 253 -26 299 -88 286 -17 -3
-41 0 -55 6 -74 34 -234 -88 -433 -329 -77 -94 -102 -111 -102 -70 1 41 39
199 75 304 61 181 46 219 -113 274 -90 31 -112 13 -146 -122 -24 -92 -24 -92
-142 -187 -145 -115 -245 -200 -423 -357 -212 -187 -436 -345 -489 -345 -28 0
-56 202 -41 286 13 73 -12 131 -74 167 -25 15 -57 41 -72 59 -31 37 -83 42
-132 12 -53 -33 -99 -62 -323 -209 -245 -161 -356 -223 -372 -207 -11 11 37
113 90 187 194 274 410 481 590 566 37 18 85 47 106 66 92 78 150 -16 70 -114
-45 -54 -41 -72 18 -91 67 -21 134 21 178 110 38 76 38 95 -2 154 -52 76 -99
103 -213 122 -98 16 -98 16 -137 -7 -22 -12 -63 -29 -93 -36 -98 -26 -214
-102 -325 -214 -36 -36 -103 -100 -150 -141 -180 -162 -359 -450 -368 -596 -5
-72 -1 -91 36 -171 17 -40 142 -123 184 -123 54 0 274 141 433 278 112 97 300
226 315 217 5 -3 10 -23 10 -43 1 -137 77 -310 172 -394 106 -93 130 -97 241
-42 221 111 387 249 387 322 0 16 7 35 15 42 8 7 15 16 15 21 0 12 -25 1 -90
-38 -59 -36 -70 -39 -70 -22 0 26 529 519 602 559 20 12 17 -80 -7 -230 -22
-134 -29 -289 -16 -337 24 -87 185 -214 236 -185 26 14 120 141 225 303 95
147 231 312 245 297 3 -3 17 -52 32 -109 43 -174 74 -221 200 -307 102 -70
146 -74 294 -28 131 40 159 56 295 167 86 71 86 71 80 22 -32 -229 113 -471
300 -504 116 -20 140 -21 204 -5 73 19 330 138 437 202 40 24 76 44 79 44 4 0
32 21 63 47 134 113 205 182 263 252 34 42 65 80 70 86 21 23 -8 -65 -34 -105
-44 -68 -69 -161 -75 -282 -7 -122 3 -160 47 -180 15 -6 36 -25 45 -40 21 -36
60 -56 157 -79 77 -18 79 -18 132 1 62 24 146 76 226 142 53 43 59 45 136 51
165 13 433 119 526 208 24 23 68 58 99 79 55 38 139 126 224 236 45 57 45 57
45 -7 0 -192 61 -312 199 -392 32 -19 75 -51 96 -71 46 -45 40 -46 200 18 152
61 203 98 404 290 114 109 114 109 146 20 52 -147 65 -164 145 -204 25 -12 67
-38 93 -57 70 -49 94 -57 142 -43 264 79 296 99 488 289 148 148 188 198 136
170 -35 -18 -108 -76 -143 -114 -18 -19 -39 -35 -46 -35 -7 0 34 47 91 105 57
58 106 113 108 123 5 23 -36 -12 -44 -38 -3 -10 -30 -26 -65 -38 -60 -20 -60
-20 -48 1 13 26 188 207 199 207 16 0 32 -41 20 -53 -17 -17 -13 -29 8 -22 17
5 31 -17 100 -154 45 -88 81 -164 81 -170 0 -5 -46 -61 -101 -123 -290 -323
-385 -587 -279 -774 78 -136 233 -142 391 -15 102 82 130 115 171 195 82 162
100 306 62 485 -13 63 -24 122 -24 131 0 20 140 140 272 233 54 38 98 74 98
81 0 20 84 94 115 102 17 3 82 34 145 67 63 34 176 90 250 126 74 35 142 70
151 77 8 8 22 14 30 14 20 0 59 29 40 30 -72 1 -549 -191 -613 -247 -9 -8 -33
-19 -53 -23 -37 -8 -37 -8 -9 21 15 16 25 31 22 35 -7 6 -62 -20 -97 -47 -13
-11 -33 -19 -43 -19 -37 0 -182 -87 -323 -194 -60 -45 -60 -45 -96 27 -20 40
-54 101 -75 137 -136 223 -170 440 -92 567 36 58 36 58 111 58 76 1 121 18
134 51 25 67 -154 161 -262 137z m-4540 -433 c18 -107 -225 -410 -330 -410
-22 0 -19 17 18 90 19 36 50 97 69 136 37 71 88 133 163 192 54 44 72 42 80
-8z m1340 -122 c135 -159 86 -471 -115 -728 -48 -61 -58 -70 -80 -65 -79 18
-107 80 -90 204 11 82 4 154 -20 201 -5 9 2 47 16 90 13 41 24 84 24 94 0 19
49 89 105 151 14 17 34 41 43 53 15 23 44 40 69 41 6 1 28 -18 48 -41z m-5291
-119 c-149 -146 -271 -288 -357 -416 -73 -108 -87 -117 -50 -30 42 98 127 206
330 420 57 59 191 162 200 153 2 -2 -53 -59 -123 -127z m4739 -166 c-5 -83 -9
-101 -27 -117 -11 -11 -82 -76 -156 -146 -74 -69 -161 -143 -193 -164 -62 -40
-254 -136 -274 -136 -28 0 -10 21 50 61 34 24 89 67 122 97 33 30 79 63 102
74 30 14 63 47 121 121 44 56 92 113 107 127 15 14 54 60 87 103 33 42 62 77
63 77 2 0 1 -44 -2 -97z m4356 4 c-2 -2 -22 -14 -44 -26 -40 -23 -40 -23 -12
3 15 14 35 26 44 26 9 0 14 -1 12 -3z m-8664 -197 c13 -21 -202 -164 -265
-176 -32 -7 -34 -6 -21 9 7 9 18 17 24 17 17 0 47 32 47 50 0 37 107 110 161
110 26 0 50 -4 54 -10z m8162 -202 c-8 -29 -67 -77 -67 -54 0 17 60 89 68 82
2 -3 2 -16 -1 -28z m-3586 -187 c39 -20 37 -25 -23 -66 -139 -92 -173 -36
-103 173 3 8 23 -8 51 -40 26 -29 60 -59 75 -67z m3460 47 c-17 -24 -49 -63
-71 -88 -40 -45 -40 -45 -25 -7 15 39 31 62 75 109 40 42 54 33 21 -14z m178
-95 c3 -186 -112 -395 -260 -472 -83 -44 -97 -13 -53 111 36 98 94 212 141
274 154 206 157 210 164 178 4 -16 7 -57 8 -91z m15 -245 c-7 -59 -19 -86 -76
-170 -41 -61 -68 -87 -53 -52 4 10 16 39 25 64 27 72 94 210 102 210 4 0 5
-24 2 -52z M6024 12381 c-65 -28 -90 -97 -76 -216 13 -112 6 -2011 -8 -2205 -6
-85 -13 -263 -16 -395 -6 -240 -6 -240 28 -305 30 -59 37 -65 72 -73 22 -4 46
-13 53 -19 34 -28 123 -9 137 29 10 26 -5 331 -19 388 -10 40 -10 59 1 100 15
56 18 181 5 237 -6 24 -4 54 5 89 9 36 14 113 14 234 0 111 6 212 15 265 8 47
19 135 24 195 12 124 55 312 77 336 8 9 36 19 64 21 76 8 148 58 305 213 287
283 361 381 432 577 79 220 77 347 -8 390 -260 132 -457 72 -635 -194 -48 -71
-193 -350 -212 -406 -6 -19 -16 -31 -22 -27 -14 9 -13 210 3 336 35 298 -10
412 -173 433 -25 3 -54 2 -66 -3z m934 -216 c37 -46 7 -155 -72 -263 -112
-155 -425 -512 -448 -512 -35 0 75 277 203 510 122 223 260 338 317 265z
m-218 -24 c-5 -11 -15 -23 -20 -26 -40 -25 -209 -352 -295 -571 -36 -93 -73
-189 -83 -213 -19 -50 -45 -72 -63 -54 -16 16 33 184 92 313 26 58 53 125 59
150 29 111 174 332 255 386 57 39 70 42 55 15z m184 -421 c-35 -65 -173 -232
-185 -225 -16 10 -10 23 34 73 23 26 71 87 107 135 68 93 90 101 44 17z m-872
-332 c2 -18 1 -46 -3 -63 -4 -23 -7 -15 -10 33 -4 64 6 88 13 30z m223 -319
c7 -22 -12 -79 -26 -79 -5 0 -9 15 -9 34 0 61 22 88 35 45z m-224 -249 c-8
-21 -10 -14 -10 35 -1 87 13 128 17 50 2 -34 -2 -72 -7 -85z M7895 12175 c-27 -8 -62 -15 -76 -15 -55 0 -143 -96 -211 -230 -41
-81 -41 -81 -48 -230 -7 -142 -9 -152 -35 -190 -48 -70 -77 -172 -82 -293 -6
-125 4 -158 51 -181 18 -8 38 -26 44 -40 15 -32 50 -50 151 -75 112 -28 179
-3 343 127 73 58 74 59 154 65 170 13 425 115 534 213 30 28 79 67 108 88 50
37 197 200 257 285 41 61 25 72 -26 17 -64 -68 -226 -199 -241 -193 -8 2 38
57 113 133 115 117 153 173 134 192 -3 3 -54 -42 -113 -100 -177 -175 -390
-342 -522 -410 -158 -81 -369 -129 -294 -67 39 32 118 174 109 196 -5 14 -9
12 -30 -7 -32 -30 -34 -10 -6 52 11 24 39 106 62 183 50 168 53 172 59 116 3
-25 10 -46 17 -48 35 -12 37 185 2 253 -28 56 -125 136 -186 154 -62 19 -212
21 -268 5z m217 -134 c128 -150 87 -482 -85 -693 -24 -30 -52 -66 -61 -81 -25
-38 -60 -35 -103 8 -34 34 -34 34 -31 172 3 117 0 145 -15 179 -18 40 -18 41
4 100 12 32 24 75 26 94 6 38 48 102 126 190 72 82 91 87 139 31z m-349 -811
c24 -27 56 -55 71 -61 37 -17 33 -25 -36 -69 -119 -77 -148 -49 -111 108 20
86 19 85 76 22z M11285 10720 c-11 -35 33 -68 51 -39 8 14 -16 59 -32 59 -7 0 -16 -9
-19 -20z"/></g><g transform="translate(0.000000,1600.000000) scale(0.100000,-0.100000)" fill="#E8B98A"><path d="M14935 10080 c-10 -11 -24 -20 -32 -20 -27 0 -93 -71 -91 -99 1 -15
-2 -33 -7 -41 -22 -37 -61 -80 -72 -80 -8 0 -13 -14 -13 -36 0 -27 -5 -37 -19
-41 -10 -3 -27 -22 -36 -43 -17 -38 -46 -69 -83 -89 -11 -6 -22 -24 -25 -41
-4 -17 -18 -42 -32 -56 -14 -14 -28 -38 -31 -52 -4 -19 -17 -33 -45 -46 -22
-11 -39 -26 -39 -36 0 -9 -16 -38 -36 -63 -36 -46 -37 -47 -95 -47 -56 0 -59
-1 -59 -24 0 -16 -11 -32 -30 -46 -29 -21 -29 -21 -14 -61 16 -39 16 -40 -11
-80 -14 -22 -40 -48 -56 -57 -16 -10 -32 -26 -35 -37 -3 -11 -37 -51 -74 -90
-38 -38 -79 -82 -93 -97 -16 -17 -39 -29 -69 -33 -46 -7 -68 -42 -68 -109 0
-14 -4 -28 -10 -31 -20 -12 -11 -52 15 -63 67 -31 195 12 229 76 8 15 54 68
102 117 48 50 105 114 127 143 23 30 51 58 64 63 12 4 42 33 65 64 46 59 69
65 110 28 14 -13 20 -13 47 1 26 14 42 15 96 6 48 -8 71 -7 87 1 11 6 36 9 56
6 21 -4 45 -1 63 8 34 18 136 20 141 3 3 -7 11 -9 24 -3 10 4 25 7 32 6 8 -1
25 5 39 14 50 33 123 -9 123 -71 0 -24 85 -197 104 -213 9 -8 16 -20 16 -27 0
-30 51 -108 123 -187 20 -22 37 -45 37 -49 0 -4 9 -8 19 -8 11 0 32 -6 48 -14
128 -63 176 -71 211 -33 31 33 28 63 -8 82 -16 8 -37 29 -45 45 -9 17 -21 30
-28 30 -22 0 -168 188 -171 220 -1 8 -16 37 -34 64 -18 28 -32 59 -32 70 0 11
-7 27 -16 37 -9 10 -18 35 -21 57 -6 48 -7 48 129 57 79 6 102 11 129 30 22
17 40 22 58 19 29 -6 44 6 55 42 9 28 -17 54 -53 54 -16 0 -48 7 -72 15 -35
13 -49 13 -78 3 -20 -6 -77 -12 -128 -13 -106 -2 -104 -4 -110 89 -2 33 -8 65
-13 71 -6 7 -7 15 -4 18 3 3 -5 21 -18 39 -14 18 -30 60 -37 93 -7 33 -23 76
-36 95 -12 19 -28 58 -35 87 -6 28 -25 72 -41 98 -16 25 -29 59 -29 75 0 24
-7 33 -37 49 -21 10 -51 33 -67 50 -35 37 -37 37 -61 11z m25 -352 c14 -15 20
-35 20 -65 0 -30 5 -45 15 -49 8 -4 15 -14 15 -23 0 -9 9 -32 19 -52 11 -20
22 -57 26 -83 4 -26 15 -64 25 -84 13 -27 15 -40 7 -53 -8 -13 -7 -21 2 -33
20 -24 -28 -43 -68 -27 -19 8 -87 13 -198 13 -189 0 -244 9 -219 37 9 10 16
23 16 30 0 6 18 31 39 54 22 23 42 54 46 68 4 16 19 32 41 42 20 10 34 24 34
35 0 10 14 31 30 47 17 16 37 42 44 57 12 23 77 107 83 108 1 0 11 -10 23 -22z M18509 10024 c-10 -12 -23 -14 -56 -9 -23 3 -108 1 -188 -6 -108 -9
-152 -9 -170 -1 -21 10 -31 8 -62 -11 -34 -20 -51 -22 -171 -22 -117 0 -135
-2 -143 -17 -7 -12 -22 -18 -47 -18 -89 -1 -190 -89 -178 -155 8 -41 49 -75
92 -75 40 0 40 -2 13 -75 -14 -37 -20 -74 -18 -114 2 -51 -2 -65 -29 -107 -40
-60 -43 -113 -8 -154 28 -33 43 -114 26 -135 -8 -10 -9 -23 -1 -47 5 -18 17
-64 27 -103 43 -179 130 -305 249 -360 129 -60 165 -68 211 -49 27 12 61 17
111 15 40 -1 74 2 77 8 4 6 13 8 21 5 8 -3 26 6 41 21 14 14 51 35 82 47 32
11 64 27 73 34 8 8 20 14 26 14 6 0 17 7 24 17 8 9 37 31 64 49 28 17 97 78
154 134 96 95 103 105 97 133 -16 78 -62 98 -122 52 -18 -14 -39 -25 -47 -25
-8 0 -27 -20 -42 -45 -18 -32 -39 -52 -70 -66 -24 -11 -49 -27 -56 -35 -6 -8
-20 -14 -30 -14 -10 0 -39 -18 -64 -40 -25 -22 -57 -42 -71 -45 -13 -3 -36 -8
-51 -11 -15 -3 -31 -10 -34 -16 -11 -17 -129 -37 -188 -31 -80 8 -191 82 -191
127 0 4 -9 19 -19 32 -12 15 -23 56 -31 112 -7 48 -16 111 -21 141 -11 67 -19
61 88 66 49 2 101 9 115 16 20 9 38 9 69 1 28 -7 49 -7 61 -1 9 5 29 7 44 3
40 -10 86 -8 119 6 18 7 66 12 118 11 49 -1 96 3 109 10 11 6 49 13 83 14 34
2 73 9 86 16 14 8 49 12 85 10 110 -4 164 39 164 130 0 31 0 31 -37 23 -21 -4
-79 -7 -130 -5 -51 1 -100 -2 -111 -8 -12 -7 -147 -13 -349 -17 -180 -3 -367
-7 -415 -8 -60 -2 -88 1 -88 8 0 13 29 58 44 68 7 4 4 13 -6 25 -21 25 -30
109 -12 124 8 6 14 23 14 38 0 23 6 28 48 39 26 8 70 20 97 28 100 28 252 39
282 21 5 -3 23 1 39 9 48 26 111 42 125 33 21 -13 89 -10 134 6 48 17 101 19
111 4 3 -6 24 -9 48 -7 22 3 52 1 65 -4 31 -11 89 8 119 39 42 46 21 94 -48
108 -19 4 -39 10 -45 14 -5 3 -48 7 -95 8 -117 2 -159 8 -172 21 -16 16 -23
15 -39 -4z M12870 10005 c-14 -8 -33 -14 -43 -15 -21 0 -64 -28 -120 -77 -20
-18 -46 -33 -58 -33 -14 0 -24 -10 -32 -29 -6 -16 -19 -32 -28 -34 -11 -3 -20
-19 -24 -41 -6 -28 -17 -42 -51 -63 -35 -23 -43 -34 -44 -58 0 -17 -11 -47
-25 -67 -14 -20 -25 -41 -25 -46 0 -5 -14 -42 -31 -83 -17 -41 -39 -103 -50
-138 -10 -36 -24 -68 -31 -72 -8 -5 -11 -47 -11 -147 2 -146 12 -194 53 -237
23 -24 70 -111 70 -129 0 -17 40 -52 70 -61 14 -4 29 -14 35 -20 5 -7 44 -28
85 -46 80 -36 121 -41 335 -41 150 0 167 2 210 22 22 10 78 31 125 45 95 30
194 76 225 106 12 10 36 22 54 25 19 4 51 24 76 48 23 23 58 50 78 60 19 11
40 30 46 43 6 13 17 23 24 23 30 0 55 43 93 161 4 11 -6 23 -31 38 -45 27 -79
10 -203 -102 -104 -93 -151 -127 -184 -134 -15 -3 -34 -16 -42 -28 -8 -12 -27
-25 -43 -28 -39 -7 -211 -65 -251 -85 -23 -11 -56 -15 -112 -13 -49 1 -87 -3
-99 -11 -16 -10 -23 -9 -39 5 -15 14 -25 16 -46 7 -21 -8 -32 -7 -49 5 -12 8
-32 15 -45 15 -13 0 -30 7 -39 15 -8 9 -28 19 -44 22 -33 6 -79 54 -79 82 0
11 -4 23 -10 26 -5 3 -10 15 -10 25 0 11 -12 36 -26 57 -20 30 -24 46 -20 73
3 19 6 52 6 72 0 20 7 44 16 53 9 9 14 24 11 36 -9 33 32 180 64 230 16 25 29
51 29 56 0 6 6 13 14 16 8 3 17 19 21 36 4 17 10 31 14 31 5 0 20 17 33 38 50
73 151 167 183 169 17 1 44 4 60 7 17 3 43 0 59 -6 20 -8 31 -8 33 -2 5 15 62
4 98 -17 16 -11 37 -19 46 -19 35 0 68 -45 62 -86 -7 -54 13 -189 33 -219 44
-67 96 -73 182 -22 46 27 52 44 52 140 0 91 -26 183 -62 219 -10 10 -18 22
-18 28 0 5 -33 28 -72 51 -40 22 -85 50 -100 60 -60 42 -165 71 -251 68 -45
-1 -91 1 -102 5 -11 3 -31 -1 -45 -9z M16710 9999 c-68 -14 -183 -19 -423 -19 -174 0 -224 -3 -247 -15 -16
-8 -47 -15 -68 -15 -39 0 -39 0 -46 -71 -6 -71 -6 -71 31 -114 42 -48 59 -53
104 -29 17 8 36 13 43 11 21 -8 34 -99 34 -235 0 -133 0 -133 -58 -126 -145
16 -223 -39 -196 -138 13 -51 53 -65 198 -71 49 -1 50 -7 38 -147 -6 -63 -10
-133 -9 -155 2 -54 2 -53 -9 -115 -8 -44 -7 -58 4 -71 18 -20 18 -31 -6 -128
-23 -93 -21 -101 23 -101 18 0 41 -7 51 -15 29 -22 44 -18 62 17 17 32 72 271
80 343 2 22 6 58 9 80 3 22 7 84 9 138 4 108 13 167 24 167 4 0 23 -4 42 -10
26 -8 39 -6 58 6 19 13 29 13 52 4 20 -8 50 -8 116 0 49 6 141 13 204 16 63 2
143 9 177 15 34 6 79 12 100 14 39 3 82 14 143 36 19 6 41 13 48 15 17 5 15
29 -4 70 -25 52 -35 53 -339 39 -181 -9 -210 -9 -275 -5 -19 1 -97 -1 -174 -5
-154 -7 -148 -14 -117 155 8 39 7 56 -1 61 -6 4 -8 17 -5 29 3 11 -4 43 -15
71 -12 27 -18 52 -15 56 11 11 111 23 143 17 17 -3 49 -1 71 5 29 8 49 8 69 1
19 -7 30 -8 38 0 5 5 32 10 59 10 27 0 96 8 154 17 82 13 115 15 156 6 35 -7
58 -8 71 -1 11 6 40 12 65 13 106 6 151 30 151 81 0 65 -19 72 -182 73 -231 0
-372 8 -376 20 -2 6 -7 11 -10 10 -4 -1 -27 -5 -52 -10z"/></g></svg>